#File generated from solving marker data for model walk1.trc
name solved_motion
datacolumns 106
datarows 6
range 0.7500000000 0.7920000000
units unknown
enforce_loops no
enforce_constraints no
endheader

time	lower_torso_TX	lower_torso_TY	lower_torso_TZ	lower_torso_RX	lower_torso_RY	lower_torso_RZ	lumbar_roll	lumbar_yaw	lumbar_pitch	neck_roll	neck_yaw	neck_pitch	arm_add_r	arm_rot_r	arm_flex_r	elbow_flex_r	pro_sup_r	wrist_dev_r	wrist_flex_r	arm_add_l	arm_rot_l	arm_flex_l	pro_sup_l	wrist_dev_l	wrist_flex_l	hip_add_r	hip_rot_r	hip_flex_r	ankle_flex_r	subt_angle_r	toe_angle_r	hip_add_l	hip_rot_l	hip_flex_l	knee_flex_l	ankle_flex_l	subt_angle_l	toe_angle_l	knee_flex_r	R.Shoulder_px	R.Shoulder_py	R.Shoulder_pz	R.Scapula_px	R.Scapula_py	R.Scapula_pz	L.Shoulder_px	L.Shoulder_py	L.Shoulder_pz	R.ASIS_px	R.ASIS_py	R.ASIS_pz	V.Sacral_px	V.Sacral_py	V.Sacral_pz	L.ASIS_px	L.ASIS_py	L.ASIS_pz	R.Elbow_px	R.Elbow_py	R.Elbow_pz	R.Wrist_px	R.Wrist_py	R.Wrist_pz	L.Elbow_px	L.Elbow_py	L.Elbow_pz	L.Wrist_px	L.Wrist_py	L.Wrist_pz	R.Thigh_px	R.Thigh_py	R.Thigh_pz	R.Knee_px	R.Knee_py	R.Knee_pz	R.Shank_px	R.Shank_py	R.Shank_pz	R.Ankle_px	R.Ankle_py	R.Ankle_pz	R.Heel_px	R.Heel_py	R.Heel_pz	R.Toe_px	R.Toe_py	R.Toe_pz	L.Thigh_px	L.Thigh_py	L.Thigh_pz	L.Knee_px	L.Knee_py	L.Knee_pz	L.Shank_px	L.Shank_py	L.Shank_pz	L.Ankle_px	L.Ankle_py	L.Ankle_pz	L.Heel_px	L.Heel_py	L.Heel_pz	L.Toe_px	L.Toe_py	L.Toe_pz	
0.7500000000	-0.8197938331	0.2930794262	0.7183867555	89.5044768875	-14.8007227196	2.8391936158	-2.0656476539	22.0442375621	-22.1295486638	0.0000000000	0.0000000000	0.0000000000	-46.7797233064	-9.9999999977	19.4079181206	39.0705248608	50.0000000036	0.0000000000	0.0000000000	-25.1894759716	10.0000000000	9.6638250555	70.0000000000	0.0000000000	0.0000000000	1.0739937975	18.1159955331	27.7791029373	26.5543547634	20.0000000000	0.0000000000	1.6339773051	13.8616797891	56.8186075287	93.4248394628	16.0154983627	4.0365087993	-0.0300000000	96.5689800616	-0.7636381200	0.0675052400	1.1122028800	-0.9430573700	0.2010532700	1.1227318100	-0.8158529700	0.5180850200	1.1648938000	-0.8250276500	0.1524885300	0.7434276100	-1.0102451800	0.3517603800	0.7887820400	-0.7615468100	0.4222825600	0.7385897200	-0.7832929700	-0.0912912400	0.8936586300	-0.5673842200	-0.1524608200	0.8038021900	-0.9350293600	0.6516884200	0.9517538500	-0.8889419600	0.7833581500	0.7374201700	-0.8180971100	0.0584007400	0.4027611100	-0.7544589800	0.1246096900	0.2745238000	-0.9098143900	0.0429138500	0.1749939100	-1.1252102100	0.0990627600	0.1146239200	-1.1790902100	0.1319860200	0.1503449400	-1.0463168900	0.1601637100	0.0479914100	-0.5640316200	0.4452370900	0.4663104600	-0.5405814200	0.3544008500	0.4180469700	-0.6269808300	0.5079610000	0.1898685000	-0.7318304400	0.4962942800	0.0804927300	-0.8130449800	0.4915621600	0.0841863900	-0.6589939600	0.4186621400	0.0426241800	
0.7580000000	-0.8086299130	0.2938449369	0.7165579874	89.4612764860	-15.3271917921	2.7455596088	-2.0922764358	22.7705102502	-21.4516814460	0.0000000000	0.0000000000	0.0000000000	-46.3903287836	-9.9999999977	18.9461304237	39.3973680290	50.0000000036	0.0000000000	0.0000000000	-25.0807326792	10.0000000000	8.8084281131	70.0000000000	0.0000000000	0.0000000000	0.7727706447	18.1749572660	27.6217053279	24.2344365493	19.6884272420	0.0000000000	1.3549300303	13.2011445013	56.4951529802	94.8240598103	16.6207012987	3.8779007372	-0.0310000000	97.0659887213	-0.7552921100	0.0683883000	1.1128883100	-0.9346115100	0.2028160200	1.1211909200	-0.8071958600	0.5195002400	1.1631944600	-0.8154977400	0.1549159200	0.7416977500	-1.0018499800	0.3525214200	0.7867055700	-0.7439323700	0.4233223300	0.7369909700	-0.7757478000	-0.0884283100	0.8939275500	-0.5571942100	-0.1495505400	0.8029232800	-0.9316199300	0.6536657100	0.9516032700	-0.8852903400	0.7838711500	0.7358219000	-0.8110996100	0.0590278800	0.4016756000	-0.7482993200	0.1221385500	0.2730184600	-0.9063826300	0.0426088600	0.1755158800	-1.1170205100	0.1043739300	0.1172639600	-1.1723582800	0.1334492600	0.1551905800	-1.0470293000	0.1593344100	0.0485195300	-0.5581324500	0.4457080400	0.4591660800	-0.5298679200	0.3540530400	0.4144383200	-0.6257372400	0.5084220900	0.1891043400	-0.7340162400	0.4975009500	0.0837061700	-0.8136111500	0.4917840900	0.0872192600	-0.6593352700	0.4195055800	0.0422354500	
0.7670000000	-0.7983563384	0.2951470172	0.7152371706	89.5845287714	-15.7012102531	2.8461426053	-2.1236093465	22.8608787564	-20.8264687528	0.0000000000	0.0000000000	0.0000000000	-45.6632630593	-9.9999999977	19.3300708022	39.0292283482	50.0000000036	0.0000000000	0.0000000000	-25.2374673568	10.0000000000	7.5420000400	70.0000000000	0.0000000000	0.0000000000	0.1713103618	18.2733270899	27.5502316933	22.6212288241	19.5272863341	0.0000000000	1.3221428645	12.6978766230	55.7838147096	95.8641574880	18.1092371580	4.6728854721	-0.0320000000	97.7372452440	-0.7539505000	0.0682892500	1.1129478800	-0.9266011400	0.2054411800	1.1197797900	-0.8005011600	0.5222932100	1.1617257100	-0.8060880700	0.1555457000	0.7412946200	-0.9932984600	0.3550715900	0.7856822500	-0.7288261700	0.4254671600	0.7366075400	-0.7687565300	-0.0846156500	0.8932535400	-0.5492784400	-0.1460078400	0.8026054100	-0.9262435300	0.6539838900	0.9496176100	-0.8837141100	0.7880840500	0.7357995600	-0.8032623300	0.0579553000	0.4008975200	-0.7388968500	0.1212851800	0.2714999100	-0.9042763100	0.0413461900	0.1781306800	-1.1107705100	0.1053683700	0.1214201600	-1.1645083000	0.1356257900	0.1609841800	-1.0435520000	0.1589115800	0.0493237600	-0.5507788700	0.4458295900	0.4527380700	-0.5258089600	0.3567226000	0.4091728800	-0.6244698500	0.5112269300	0.1905668800	-0.7344525800	0.4995784000	0.0840987900	-0.8139357900	0.4940730300	0.0892830700	-0.6617999900	0.4211820100	0.0436303300	
0.7750000000	-0.7904906530	0.2952634840	0.7136590148	89.3043356396	-15.8767366229	2.8131469782	-2.1881176717	23.5392815627	-20.9065247778	0.0000000000	0.0000000000	0.0000000000	-45.4281167039	-9.9999999977	18.8068976853	39.6546585749	50.0000000036	0.0000000000	0.0000000000	-25.9005796526	10.0000000000	7.1541614320	70.0000000000	0.0000000000	0.0000000000	0.1616267122	17.9129137869	27.6774906671	21.5580799136	20.0000000000	0.0000000000	0.9187297240	12.8546621285	55.1667897630	96.5045173624	20.1517081055	7.2445392126	-0.0330000000	98.6359363289	-0.7415202600	0.0733627600	1.1104849900	-0.9198587000	0.2070198800	1.1183945300	-0.7934367100	0.5235657300	1.1603494900	-0.7984795500	0.1545139500	0.7402749000	-0.9840500500	0.3565046400	0.7830597500	-0.7200398600	0.4262739000	0.7349682600	-0.7603157300	-0.0820253100	0.8909875500	-0.5390783100	-0.1422458200	0.8002156400	-0.9205179400	0.6553531500	0.9488152500	-0.8834400000	0.7939937100	0.7370130000	-0.7965039700	0.0553068500	0.4005566700	-0.7337325400	0.1188493400	0.2722060500	-0.8965308200	0.0415281700	0.1794676100	-1.1069207800	0.1061261900	0.1265477100	-1.1591016800	0.1373161000	0.1680149700	-1.0381557600	0.1610317500	0.0495847200	-0.5443046300	0.4466687300	0.4481091600	-0.5223083500	0.3578508300	0.4023484800	-0.6243094500	0.5157814900	0.1930072300	-0.7343682300	0.5024333500	0.0838029400	-0.8131420300	0.4975058900	0.0879877300	-0.6635100100	0.4220903900	0.0442043900	
0.7830000000	-0.7840990006	0.2961692445	0.7125606069	88.1635882688	-15.4599202256	2.7941757123	-1.3739803501	23.6402006543	-21.5843927123	0.0000000000	0.0000000000	0.0000000000	-45.6683013785	-9.9999999977	17.8387309498	41.7101793015	50.0000000036	0.0000000000	0.0000000000	-26.1151167913	10.0000000000	6.8711799077	70.0000000000	0.0000000000	0.0000000000	0.8061018803	16.8075145581	27.5217343645	19.3412172190	20.0000000000	0.0000000000	0.3156818706	13.8930483287	54.6500051099	97.0776585988	21.3316284535	7.9519185652	-0.0340000000	99.4793563357	-0.7300848400	0.0793302800	1.1076738300	-0.9116098000	0.2102561800	1.1169848600	-0.7848433200	0.5261683300	1.1582042200	-0.7906738300	0.1561390200	0.7405499900	-0.9758915400	0.3582302200	0.7812674000	-0.7202017200	0.4253007200	0.7311689500	-0.7559733900	-0.0814445600	0.8931724200	-0.5305518200	-0.1390464500	0.7994293800	-0.9135305200	0.6561356800	0.9479711300	-0.8819243200	0.7954765600	0.7365957600	-0.7869237700	0.0544615400	0.4008274800	-0.7273218400	0.1127192000	0.2722080400	-0.8894709500	0.0413345100	0.1815488100	-1.1037596400	0.1046725700	0.1329052900	-1.1514523900	0.1378548900	0.1752894900	-1.0362141100	0.1614946100	0.0510341000	-0.5380875200	0.4468903500	0.4427810400	-0.5134586200	0.3565100700	0.3968989300	-0.6251018700	0.5221851200	0.1946134300	-0.7346418500	0.5037558600	0.0813619300	-0.8129322500	0.4984205900	0.0866496400	-0.6625791000	0.4231288100	0.0435539900	
0.7920000000	-0.7731008242	0.2969048527	0.7108358396	88.5044663010	-15.8838082821	2.7382404358	-1.7556621509	23.9953083869	-20.7273595114	0.0000000000	0.0000000000	0.0000000000	-45.0724627127	-9.9999999977	17.6686008383	40.6840490490	50.0000000036	0.0000000000	0.0000000000	-26.2448374038	10.0000000000	5.9400322048	70.0000000000	0.0000000000	0.0000000000	0.3357066469	17.1195810913	27.9951866165	17.9653421486	20.0000000000	0.0000000000	0.0511150724	12.9548224467	53.8855482869	97.2458591027	23.4454040942	8.5470690544	-0.0350000000	100.6068586719	-0.7239396400	0.0809693200	1.1077543900	-0.9040395500	0.2118472300	1.1166890900	-0.7787008100	0.5298906300	1.1581523400	-0.7818170200	0.1591595600	0.7378410000	-0.9668861100	0.3578486000	0.7802302200	-0.7040673200	0.4262536000	0.7306144400	-0.7476955000	-0.0786670000	0.8915670200	-0.5243535200	-0.1386669600	0.7986205400	-0.9077713000	0.6581305500	0.9471574700	-0.8792674000	0.7973413700	0.7354765000	-0.7778992300	0.0532553000	0.4003948700	-0.7178604100	0.1136186600	0.2721233500	-0.8803979500	0.0402908200	0.1836786000	-1.0910688500	0.1092279700	0.1371261400	-1.1429735100	0.1398851800	0.1830640400	-1.0306765100	0.1615373100	0.0538737900	-0.5299653300	0.4478855300	0.4382959000	-0.5034518100	0.3602053800	0.3908197600	-0.6241621700	0.5253007200	0.1922681700	-0.7328884300	0.5061735200	0.0780933800	-0.8130895400	0.5009690600	0.0830973100	-0.6600802000	0.4239930100	0.0427146400	
